<svg xmlns="http://www.w3.org/2000/svg" width="24" height="24" viewBox="0 0 24 24" fill="currentColor"><path d="M14.25 2.26l-.08-.04-.01.02C13.46 2.09 12.74 2 12 2C6.48 2 2 6.48 2 12s4.48 10 10 10s10-4.48 10-10c0-4.75-3.31-8.72-7.75-9.74zM19.41 9h-2.38c-.22-.63-.49-1.21-.81-1.74l1.69-1.69c.63.67 1.15 1.44 1.5 2.43zM12 5c.43 0 .85.04 1.26.11a6.88 6.88 0 0 1 .99 1.89H9.75c.23-.74.53-1.38.99-1.89c.41-.07.83-.11 1.26-.11zm0 14c-3.86 0-7-3.14-7-7c0-1.31.36-2.53.99-3.58h3.32a9.8 9.8 0 0 0-.06 1.08v.5H6.5c-.28 0-.5.22-.5.5s.22.5.5.5h2.75v1H6.5c-.28 0-.5.22-.5.5s.22.5.5.5h2.75v1H6.5c-.28 0-.5.22-.5.5s.22.5.5.5h3.25c.27 1.72 1.21 3.21 2.57 4.16c-.28.02-.55.04-.82.04zm6.99-4.42c-.63.67-1.35 1.24-2.16 1.68c.1-.38.17-.77.17-1.17V15h1.85c.05.2.1.39.14.58zM15 12v.5h1.75c.28 0 .5-.22.5-.5s-.22-.5-.5-.5H15v-.5c0-.36-.03-.72-.06-1.08h3.32c.22.47.39.96.5 1.48c-.59.37-1.26.6-1.99.6H15z"/></svg>
